# xmcd
# 
# Track frame offsets:
#     150
#     29352
#     64177
#     80295
#     91407
#     111285
#     120925
#     135197
#     168880
#     185580
#     201067
#     215705
#     229205
#     256657
#     271607
# 
# Disc length: 3778
# 
# Revision: 3
# Processed by: cddbd v1.5.2PL0 Copyright (c) Steve Scherf et al.
# Submitted via: fre:ac v1.0.31
# 
DISCID=c10ec00f
DTITLE=Various Artist - Blues Story #2 - Le Blues Anglais
DYEAR=1998
DGENRE=Blues
TTITLE0=Cream - Spoonful
TTITLE1=Peter Green - A Fool No More
TTITLE2=John Mayall and Eric Clapton - All Your Love
TTITLE3=Alexis Korner - Watermelon Man
TTITLE4=The Yardbirds - I'm A Man
TTITLE5=The Small Faces - Talk To You
TTITLE6=Manfred Mann - I've Got My Mojo Working
TTITLE7=Ten Years After - Love Like A Man
TTITLE8=The Kinks - Milk Cow Blues
TTITLE9=Jimmy Page - Down In The Boots
TTITLE10=Rod Stewart - So Much To Say
TTITLE11=The Pretty Things - I Had A Dream
TTITLE12=Fleetwood Mac - Black Magic Wooman (Live)
TTITLE13=The Animals - Boom Boom
TTITLE14=Jeff Beck - Steelin'
EXTD=YEAR: 1998
EXTT0=
EXTT1=
EXTT2=
EXTT3=
EXTT4=
EXTT5=
EXTT6=
EXTT7=
EXTT8=
EXTT9=
EXTT10=
EXTT11=
EXTT12=
EXTT13=
EXTT14=
PLAYORDER=
